PathFileType	4	(X/Y/Z)	1103211_Cal01.trc	
DataRate	CameraRate	NumFrames	NumMarkers	Units	OrigDataRate	OrigDataStartFrame	OrigNumFrames
300	300	4	77	mm	300	296	337
Frame#	Time	CLAV			STRN			RSHO			LSHO			C7			T10			RBAK			RASI			LASI			RPSI			LPSI			LGTR			RGTR			LHJC			RHJC			LMFC			RMFC			LLTP			RLTP			LMTP			RMTP			LANK			RANK			LMMA			RMMA			LHEE			RHEE			LMT5			RMT5			LTOE			RTOE			RELB			RWRA			RWRB			RFIN			LELB			LWRB			LWRA			LFIN			RFP1			RFP2			RFP3			RFM1			RFM2			RFM3			RFA1			RFA2			RFA3			LFP1			LFP2			LFP3			LFM1			LFM2			LFM3			LFA1			LFA2			LFA3			LKNE			RKNE			RTP1			RTP2			RTP3			RTA1			RTA2			RTA3			LTP1			LTP2			LTP3			LTA1			LFHD			LBHD			RFHD			RBHD			LUPA			LFRA			RUPA			RFRA			
		X1	Y1	Z1	X2	Y2	Z2	X3	Y3	Z3	X4	Y4	Z4	X5	Y5	Z5	X6	Y6	Z6	X7	Y7	Z7	X8	Y8	Z8	X9	Y9	Z9	X10	Y10	Z10	X11	Y11	Z11	X12	Y12	Z12	X13	Y13	Z13	X14	Y14	Z14	X15	Y15	Z15	X16	Y16	Z16	X17	Y17	Z17	X18	Y18	Z18	X19	Y19	Z19	X20	Y20	Z20	X21	Y21	Z21	X22	Y22	Z22	X23	Y23	Z23	X24	Y24	Z24	X25	Y25	Z25	X26	Y26	Z26	X27	Y27	Z27	X28	Y28	Z28	X29	Y29	Z29	X30	Y30	Z30	X31	Y31	Z31	X32	Y32	Z32	X33	Y33	Z33	X34	Y34	Z34	X35	Y35	Z35	X36	Y36	Z36	X37	Y37	Z37	X38	Y38	Z38	X39	Y39	Z39	X40	Y40	Z40	X41	Y41	Z41	X42	Y42	Z42	X43	Y43	Z43	X44	Y44	Z44	X45	Y45	Z45	X46	Y46	Z46	X47	Y47	Z47	X48	Y48	Z48	X49	Y49	Z49	X50	Y50	Z50	X51	Y51	Z51	X52	Y52	Z52	X53	Y53	Z53	X54	Y54	Z54	X55	Y55	Z55	X56	Y56	Z56	X57	Y57	Z57	X58	Y58	Z58	X59	Y59	Z59	X60	Y60	Z60	X61	Y61	Z61	X62	Y62	Z62	X63	Y63	Z63	X64	Y64	Z64	X65	Y65	Z65	X66	Y66	Z66	X67	Y67	Z67	X68	Y68	Z68	X69	Y69	Z69	X70	Y70	Z70	X71	Y71	Z71	X72	Y72	Z72	X73	Y73	Z73	X74	Y74	Z74	X75	Y75	Z75	X76	Y76	Z76	X77	Y77	Z77	

295	0.98000	187.74333	1374.72791	-48.39113	238.72350	1203.25610	-51.73097	87.14067	1424.44666	88.64874	85.38791	1432.82056	-193.02162	47.83656	1429.41296	-47.25493	13.30533	1134.96948	-53.63704	-10.18179	1327.10095	43.50935	177.18932	947.12939	60.01376	173.17499	953.19977	-167.35561	-3.33749	955.14270	-2.12437	-4.57088	954.04468	-100.22212	108.14592	868.89435	-219.07713	107.72055	857.91547	117.42166	101.85338	872.53693	-134.31886	101.19716	868.33514	24.61035	63.09599	466.95770	-84.81111	65.77052	471.37152	-16.30183	72.19205	447.45868	-213.85393	78.21091	450.80359	110.65016	61.85547	437.90024	-94.11513	65.91263	440.86295	-7.21690	57.40942	90.89159	-207.17888	55.91626	87.33543	108.61040	73.28488	98.66048	-121.42601	80.51637	92.80141	24.88721	-14.75089	59.76895	-159.38408	-15.90199	62.94972	60.17177	168.25482	30.70115	-243.70125	165.76862	40.90236	157.66357	212.94472	64.99002	-176.07277	214.52931	65.26434	91.04201	59.42049	1295.39685	346.23685	89.90808	1308.13440	591.29327	55.61156	1243.47046	585.15289	53.75482	1296.45740	666.02344	41.27623	1300.70959	-436.63269	35.21867	1261.25647	-685.84619	67.63632	1322.93726	-680.02307	28.94254	1317.48059	-759.29462	106.57004	762.76050	131.08270	105.15611	669.11395	129.80652	99.46768	577.57874	117.57431	168.29674	818.92596	112.07382	176.00273	717.66852	116.77782	173.29286	625.59100	106.58728	212.84279	772.13177	65.11777	207.88762	671.68475	63.91966	190.51479	581.32147	50.90356	106.71632	769.31958	-230.64067	101.12970	659.59747	-224.83559	92.75099	582.82983	-214.49339	163.22435	825.12488	-212.45708	165.50140	719.17853	-218.80690	158.91991	626.00854	-210.20082	215.15016	770.10327	-160.16692	206.68385	666.63727	-148.75917	186.54802	577.02625	-143.06236	77.86826	485.18259	-210.25587	88.74019	478.99271	108.30183	64.47952	374.09122	128.23390	55.35402	268.93982	125.25273	54.68198	182.67726	114.33484	124.77626	393.11197	62.87050	116.39375	315.49908	62.08409	108.19521	232.77988	64.55957	68.31464	359.79147	-229.57176	65.65102	278.77286	-226.20711	62.30940	193.79926	-217.06197	120.82506	400.74240	-156.73070	NaN	NaN	NaN	71.87209	1607.85559	-129.54936	176.17635	1625.81445	37.49106	184.82710	1634.56506	-110.00417	61.51466	1393.14453	-293.41132	24.09594	1305.69836	-584.90533	56.29506	1335.60425	272.66406	43.20033	1291.72986	430.23267	
296	0.98333	187.73009	1374.72449	-48.42342	238.71620	1203.25439	-51.73735	87.13751	1424.44678	88.63213	85.38300	1432.83057	-193.00612	47.84125	1429.42371	-47.25319	13.26466	1135.01636	-53.65233	-10.17989	1327.12219	43.52309	177.18089	947.19263	59.94177	173.10309	953.22333	-167.41463	-3.36396	955.17902	-2.14738	-4.62514	954.09381	-100.23485	108.05693	868.93463	-219.05849	107.65915	857.94531	117.46178	101.79117	872.56592	-134.35042	101.17946	868.39160	24.57968	63.06654	467.00577	-84.82829	65.73820	471.42120	-16.29762	72.19823	447.49802	-213.85719	78.19902	450.84637	110.65649	61.81551	437.96375	-94.07677	65.92438	440.92834	-7.21687	57.41182	90.91206	-207.18486	55.90007	87.33612	108.63478	73.30534	98.72092	-121.45143	80.52666	92.82336	24.89368	-14.74564	59.79486	-159.36751	-15.87747	62.92307	60.09349	168.26773	30.73617	-243.69579	165.77599	40.95195	157.65582	212.95436	65.00897	-176.07954	214.53520	65.28870	91.04877	59.42023	1295.43762	346.23962	89.84547	1308.14612	591.32141	55.57590	1243.49304	585.17456	53.71443	1296.48840	666.01807	41.26579	1300.79272	-436.62799	35.18345	1261.26807	-685.78839	67.53540	1322.87854	-680.02802	28.87788	1317.46948	-759.26331	106.51932	762.82007	131.08693	105.12549	669.17267	129.79985	99.45430	577.62085	117.56924	168.31482	818.99829	112.06769	175.96120	717.70306	116.78214	173.22226	625.61725	106.60182	212.78987	772.16669	65.14352	207.88359	671.70618	63.92549	190.47926	581.33185	50.89748	106.65685	769.34631	-230.66515	101.10924	659.63379	-224.84413	92.74789	582.83557	-214.49913	163.61244	825.22559	-212.52788	165.40541	719.15485	-218.77400	158.83838	626.04834	-210.19350	215.15547	770.14294	-160.16722	206.66423	666.66547	-148.75883	186.50645	577.06396	-143.06120	77.86368	485.21631	-210.22502	88.74510	479.02405	108.30746	64.46324	374.13776	128.23633	55.31764	268.91376	125.36887	54.68851	182.69443	114.33118	124.76703	393.17868	62.89630	116.40147	315.54596	62.07805	108.19881	232.80934	64.56136	68.64490	359.90875	-229.63606	65.64574	278.79456	-226.21034	62.29155	193.82916	-217.09398	120.87833	400.75336	-156.75899	NaN	NaN	NaN	71.83466	1607.88818	-129.53947	176.23705	1625.86182	37.49202	184.76622	1634.57202	-110.00722	61.51611	1393.19092	-293.43964	24.08910	1305.72961	-584.87366	56.29567	1335.61157	272.66745	43.16207	1291.74353	430.24231	
297	0.98667	187.73125	1374.76013	-48.43211	238.67235	1203.27234	-51.76146	87.12244	1424.47412	88.66357	85.37003	1432.83594	-193.01283	47.84485	1429.43774	-47.24858	13.26171	1135.01807	-53.65227	-10.22878	1327.13843	43.55090	177.12566	947.20886	59.96170	173.08162	953.25134	-167.39363	-3.41016	955.19641	-2.15355	-4.65662	954.13007	-100.24040	108.03964	868.95850	-219.05687	107.61043	857.96271	117.41603	101.76262	872.59418	-134.34477	101.12733	868.41168	24.58502	63.02563	467.00922	-84.83797	65.70784	471.42343	-16.27809	72.20410	447.55588	-213.88051	78.19324	450.84503	110.63315	61.80444	437.96945	-94.07277	65.90604	440.97308	-7.20851	57.37398	90.92599	-207.15987	55.91612	87.35802	108.59941	73.32361	98.73799	-121.45702	80.53441	92.84331	24.91127	-14.75799	59.81386	-159.35490	-15.87234	62.95246	60.16879	168.31128	30.75502	-243.68190	165.76398	40.96918	157.66011	212.94005	65.06004	-176.06606	214.53099	65.31474	91.04686	59.42249	1295.43811	346.23901	89.81949	1308.17188	591.32507	55.53400	1243.51538	585.19043	53.69662	1296.48877	666.03998	41.23709	1300.81323	-436.60553	35.12246	1261.25879	-685.79022	67.51538	1322.85925	-680.02838	28.82733	1317.48230	-759.27570	106.47600	762.82367	131.09430	105.08104	669.17694	129.80267	99.45392	577.62134	117.56953	168.25165	819.01508	112.04784	175.94078	717.72937	116.78894	173.21257	625.63959	106.59286	212.77107	772.17358	65.11671	207.82829	671.75342	63.91769	190.47740	581.37738	50.93057	106.60834	769.35663	-230.63033	101.09657	659.66522	-224.84502	92.73822	582.85028	-214.47459	163.21448	825.16138	-212.45201	165.38507	719.19696	-218.78056	158.83017	626.07471	-210.19939	215.13567	770.17596	-160.17445	206.65941	666.66022	-148.75923	186.51268	577.12543	-143.10051	77.81274	485.22986	-210.22279	88.68297	479.04654	108.30736	64.42612	374.12762	128.24316	55.30927	268.92224	125.38273	54.68712	182.69209	114.32330	124.76564	393.21738	62.87425	116.39462	315.56870	62.08035	108.13835	232.81610	64.56537	68.70589	359.92804	-229.64693	65.61800	278.83884	-226.19310	62.33133	193.83705	-217.06572	120.90131	400.79456	-156.76219	NaN	NaN	NaN	71.82849	1607.94226	-129.49074	176.24532	1625.86523	37.49277	184.71043	1634.60144	-110.04295	61.51224	1393.21179	-293.42926	24.03460	1305.71960	-584.88910	56.27269	1335.60474	272.62454	43.14935	1291.73901	430.21771	
298	0.99000	187.69099	1374.76257	-48.45894	238.67049	1203.27258	-51.76228	87.12566	1424.47534	88.65930	85.32851	1432.85889	-193.01003	47.83122	1429.42676	-47.23540	13.26145	1135.03162	-53.64961	-10.23245	1327.16345	43.54146	177.04906	947.23279	60.02359	173.07930	953.24390	-167.33800	-3.46619	955.21735	-2.15179	-4.68050	954.12640	-100.24193	107.97849	868.96313	-219.10280	107.55630	857.98419	117.42174	101.74947	872.59131	-134.29927	101.06221	868.43079	24.63091	63.04640	466.99762	-84.81004	65.70282	471.43335	-16.30565	72.16383	447.53580	-213.87450	78.13557	450.87607	110.64636	61.80688	437.96716	-94.07433	65.90416	440.95602	-7.21303	57.34132	90.94140	-207.18874	55.91606	87.33801	108.60754	73.25671	98.77662	-121.41914	80.51196	92.82962	24.90410	-14.71992	59.81724	-159.35124	-15.88673	62.93377	60.16757	168.30508	30.78006	-243.67595	165.75334	40.98557	157.66412	212.93901	65.05475	-176.06749	214.49809	65.32721	91.03415	59.38098	1295.45679	346.22034	89.74187	1308.17871	591.32001	55.49792	1243.54675	585.20367	53.65437	1296.48328	666.04218	41.23462	1300.81262	-436.60394	35.09035	1261.24377	-685.77661	67.49155	1322.83301	-680.03674	28.80422	1317.43970	-759.24744	106.45984	762.82422	131.08234	105.05821	669.18213	129.80582	99.39940	577.66827	117.56882	168.17061	819.08521	112.10120	175.88588	717.75549	116.80392	173.17587	625.67651	106.60822	212.76967	772.19220	65.12073	207.82182	671.79993	63.93004	190.47093	581.37207	50.92601	106.55490	769.36035	-230.63487	101.05402	659.66174	-224.81694	92.74544	582.85400	-214.47362	162.96800	825.16040	-212.45390	165.34755	719.21844	-218.77962	158.76175	626.09125	-210.22438	214.98149	770.21735	-160.15376	206.57158	666.66693	-148.79167	186.51591	577.11841	-143.10435	77.79083	485.24918	-210.22325	88.67207	479.06113	108.31117	64.38428	374.15317	128.22437	55.26176	268.93695	125.38339	54.68347	182.69829	114.32596	124.71927	393.19858	62.87157	116.38989	315.58655	62.08673	108.12675	232.86008	64.57449	68.36143	359.83801	-229.57845	65.54366	278.84601	-226.23409	62.32990	193.86714	-217.06349	120.91609	400.80087	-156.76122	NaN	NaN	NaN	71.76973	1607.92944	-129.46355	176.22212	1625.88477	37.49162	184.65721	1634.62195	-110.04359	61.41100	1393.19202	-293.40985	23.99467	1305.72400	-584.88727	56.27200	1335.60400	272.62134	43.13986	1291.73608	430.19626	
